<svg width="193" height="57" viewBox="0 0 193 57" fill="none" xmlns="http://www.w3.org/2000/svg">
<path d="M73.2218 22.4207V24.9466L71.5753 26.4625H63.7061V16.3571H71.0757L72.7203 17.873V20.2538L71.7911 21.0382L73.2218 22.4207ZM70.1445 18.0888H65.7064V20.4714H69.9287L70.7063 19.7498V18.5947L70.1445 18.0888ZM71.2176 24.2249V22.9247L70.4303 22.203H65.7064V24.7289H70.6441L71.2176 24.2249Z" fill="white"/>
<path d="M82.0223 23.7915H77.3003L76.1553 26.4625H73.9373L78.3734 16.3571H80.9492L85.3853 26.4625H83.1673L82.0223 23.7915ZM78.0876 22.0599H81.2349L79.6623 18.377L78.0876 22.0599Z" fill="white"/>
<path d="M88.5346 26.4625V18.0888H84.8138V16.3571H94.2576V18.0888H90.5369V26.4625H88.5346Z" fill="white"/>
<path d="M102.059 23.7915H97.3349L96.1899 26.4625H93.9719L98.408 16.3571H100.984L105.42 26.4625H103.202L102.059 23.7915ZM98.1242 22.0599H101.271L99.6988 18.377L98.1242 22.0599Z" fill="white"/>
<path d="M108.639 19.8223V26.4625H106.637V16.3571H108.639L112.432 21.8481L116.225 16.3571H118.227V26.4625H116.225V19.8223L113.139 24.1523H111.709L108.639 19.8223Z" fill="white"/>
<path d="M132.896 22.2756H130.175V20.544H134.896V24.5857L132.894 26.4625H127.029L125.025 24.5857V18.2378L127.029 16.3611H133.755V18.0927H127.958L127.029 18.9595V23.8621L127.958 24.7269H131.965L132.896 23.8621V22.2756Z" fill="white"/>
<path d="M143.843 23.7915H139.121L137.976 26.4625H135.758L140.194 16.3571H142.77L147.206 26.4625H144.988L143.843 23.7915ZM139.908 22.0599H143.055L141.483 18.377L139.908 22.0599Z" fill="white"/>
<path d="M150.427 19.8223V26.4625H148.423V16.3571H150.427L154.218 21.8481L158.01 16.3571H160.013V26.4625H158.01V19.8223L154.935 24.1523H153.504L150.427 19.8223Z" fill="white"/>
<path d="M171.033 16.3571V18.0888H164.46V20.544H169.468V22.2756H164.46V24.7289H171.187V26.4625H162.447V16.3571H171.033Z" fill="white"/>
<path d="M174.898 23.1404V26.4605H172.893V16.3571H180.119L181.98 18.0888V21.4088L180.263 23.0698L182.695 26.4625H180.335L177.973 23.1404H174.898ZM179.19 18.0868H174.898V21.4069H179.19L179.977 20.6852V18.8104L179.19 18.0868Z" fill="white"/>
<path d="M183.77 20.4714V18.0888L185.63 16.3571H192.434V18.0888H186.56L185.782 18.8104V19.7498L186.56 20.4714H191.14L193 22.203V24.7289L191.14 26.4625H183.914V24.7289H190.208L190.986 24.0072V22.9247L190.208 22.203H185.63L183.77 20.4714Z" fill="white"/>
<path d="M72.2188 31.6749V33.4066H65.6365V35.8618H70.6461V37.5934H65.6365V40.0467H72.3626V41.7704H63.6342V31.6749H72.2188Z" fill="#FF5100"/>
<path d="M73.5795 35.8618H79.7322V37.5934H73.5795V35.8618Z" fill="white"/>
<path d="M81.1649 35.7892V33.4066L83.0253 31.6749H89.8292V33.4066H83.9545L83.1672 34.1223V35.0617L83.9545 35.7834H88.5345L90.393 37.515V40.0408L88.5345 41.7704H81.3068V40.0388H87.6034L88.3907 39.3172V38.2406L87.6034 37.5189H83.0253L81.1649 35.7892Z" fill="white"/>
<path d="M94.2576 38.7485V41.7704H92.2553V31.6749H99.6249L101.483 33.4066V37.0149L99.6249 38.7485H94.2576ZM98.6938 33.4066H94.2576V37.0149H98.6938L99.4811 36.2932V34.1223L98.6938 33.4066Z" fill="white"/>
<path d="M110.929 31.5298L112.933 33.4066V40.0467L110.929 41.9234H105.134L103.13 40.0467V33.4066L105.134 31.5298H110.929ZM105.134 34.1223V39.3191L106.063 40.2016H110L110.929 39.3348V34.1223L110 33.2575H106.063L105.134 34.1223Z" fill="white"/>
<path d="M117.156 38.4582V41.7704H115.151V31.6749H122.377L124.238 33.4066V36.7266L122.521 38.3876L124.953 41.7704H122.593L120.231 38.4504L117.156 38.4582ZM121.448 33.4066H117.156V36.7266H121.448L122.226 36.005V34.1223L121.448 33.4066Z" fill="white"/>
<path d="M129.319 41.7704V33.4066H125.598V31.6749H135.042V33.4066H131.322V41.7704H129.319Z" fill="white"/>
<path d="M44.0078 10.6623V27.4528L31.7665 34.8205L20.6023 22.8973H27.3848L30.8567 19.942V13.7882L27.657 10.6623H17.5697L9.36414 0H31.7918L44.0078 10.6623Z" fill="white"/>
<path d="M53.9862 41.7057V57H39.1673L40.8352 55.3704V41.643L36.4865 37.1345L33.9108 37.1247L43.895 31.4082L53.9862 41.7057Z" fill="#FF5100"/>
<path d="M28.7942 37.0757V47.0163L18.1665 56.998H0.104975L0.00971989 45.8985H13.4348L16.7746 41.643V33.483H0L10.2059 22.8973H16.551L28.7942 37.0757Z" fill="white"/>
</svg>
